<svg xmlns="http://www.w3.org/2000/svg" viewBox="0 0 360 620"><rect width="360" height="620" fill="none"/><ellipse cx="180" cy="580" rx="120" ry="24" fill="#000" opacity=".22"/><rect x="112" y="245" width="136" height="230" rx="38" fill="#2d5d8f"/><circle cx="180" cy="145" r="82" fill="#c98b68"/><path d="M103 132c8-78 63-115 126-90 35 14 53 43 51 80-52-32-106-12-177 10Z" fill="#2a1d1b"/><circle cx="150" cy="150" r="9" fill="#121212"/><circle cx="210" cy="150" r="9" fill="#121212"/><path d="M150 188c24 22 49 22 73 0" stroke="#512b23" stroke-width="8" fill="none" stroke-linecap="round"/><rect x="92" y="285" width="55" height="170" rx="25" fill="#c98b68"/><rect x="213" y="285" width="55" height="170" rx="25" fill="#c98b68"/><rect x="122" y="462" width="50" height="105" rx="20" fill="#18223b"/><rect x="188" y="462" width="50" height="105" rx="20" fill="#18223b"/><text x="180" y="610" text-anchor="middle" font-family="Arial" font-size="34" font-weight="700" fill="#8bd6ff">Robert</text></svg>
