<svg xmlns="http://www.w3.org/2000/svg" viewBox="0 0 160 90" shape-rendering="crispEdges">
  <rect width="160" height="90" fill="#392b4f"/>
  <rect y="62" width="160" height="28" fill="#5d4154"/>
  <rect x="12" y="12" width="42" height="30" fill="#20244a"/>
  <rect x="16" y="16" width="34" height="22" fill="#6fb7d8"/>
  <rect x="20" y="19" width="8" height="5" fill="#ffe6a8"/>
  <rect x="92" y="14" width="42" height="27" fill="#51385b"/>
  <rect x="96" y="18" width="34" height="4" fill="#ff9ac2"/>
  <rect x="96" y="27" width="34" height="4" fill="#ffe6a8"/>
  <rect x="98" y="36" width="8" height="5" fill="#d7f8ff"/>
  <rect x="16" y="59" width="48" height="16" fill="#b96973"/>
  <rect x="19" y="55" width="42" height="9" fill="#ff9ac2"/>
  <rect x="22" y="51" width="14" height="7" fill="#ffe6a8"/>
  <rect x="101" y="56" width="39" height="6" fill="#8a5d55"/>
  <rect x="105" y="62" width="5" height="16" fill="#3b2b36"/>
  <rect x="134" y="62" width="5" height="16" fill="#3b2b36"/>
  <rect x="111" y="49" width="16" height="10" fill="#fff4b8"/>
  <rect x="114" y="51" width="10" height="6" fill="#ffeff2"/>
  <rect y="82" width="160" height="8" fill="#4b3143"/>
</svg>
